<?xml version="1.0" standalone="no"?>
<!DOCTYPE svg PUBLIC "-//W3C//DTD SVG 20010904//EN"
 "http://www.w3.org/TR/2001/REC-SVG-20010904/DTD/svg10.dtd">
<svg version="1.0" xmlns="http://www.w3.org/2000/svg"
 width="300.000000pt" height="231.000000pt" viewBox="0 0 300.000000 231.000000"
 preserveAspectRatio="xMidYMid meet">
<metadata>
Created by potrace 1.10, written by Peter Selinger 2001-2011
</metadata>
<g transform="translate(0.000000,231.000000) scale(0.100000,-0.100000)"
fill="#000000" stroke="none">
<path d="M2085 1985 c-21 -8 -41 -12 -44 -10 -2 3 2 5 9 5 7 0 11 2 8 5 -2 3
-18 0 -35 -6 -23 -7 -33 -19 -38 -42 -4 -18 -9 -39 -12 -47 -2 -8 -4 -26 -4
-40 -1 -28 -20 -80 -31 -80 -4 0 -10 20 -14 45 -3 25 -10 45 -15 45 -5 0 -13
15 -19 33 -8 27 -9 21 -6 -39 2 -47 11 -88 27 -124 l25 -53 41 69 c38 63 40
69 22 74 -18 5 -18 6 5 35 22 27 23 32 10 67 -15 42 -14 43 32 26 27 -10 35
-8 62 10 41 30 45 28 37 -16 -6 -35 -4 -40 31 -64 l37 -27 -41 -11 c-36 -9
-43 -16 -54 -51 -11 -40 -12 -40 -28 -20 -15 21 -17 20 -74 -50 -46 -56 -56
-73 -45 -80 23 -15 78 -10 117 10 41 21 133 106 151 139 17 32 -9 29 -43 -5
-14 -14 -29 -24 -32 -21 -10 10 30 79 43 74 20 -8 16 31 -4 43 -10 5 -15 13
-11 17 4 3 -2 18 -12 32 -11 13 -20 33 -20 42 0 14 -21 33 -33 30 -1 -1 -20
-7 -42 -15z m63 -221 c2 -23 -1 -33 -8 -29 -5 3 -10 0 -10 -7 0 -9 -16 -13
-50 -14 -40 -1 -48 2 -39 12 6 8 18 13 27 12 39 -3 51 4 61 32 13 39 16 38 19
-6z m-48 -84 c-20 -13 -103 -13 -95 0 3 6 30 10 58 10 37 0 48 -3 37 -10z"/>
<path d="M1826 1898 c-16 -18 -27 -33 -25 -34 2 0 -4 -8 -13 -18 -10 -10 -18
-23 -18 -29 -1 -19 -93 -87 -118 -87 -29 0 -81 35 -118 79 -38 45 -86 91 -96
91 -4 0 -20 -19 -34 -42 -15 -24 -31 -44 -35 -46 -5 -2 -9 -8 -9 -13 0 -5 -11
-27 -25 -49 -25 -39 -27 -40 -82 -40 -52 0 -59 3 -90 36 -18 20 -33 40 -33 43
0 4 -13 20 -30 36 -38 36 -38 24 -1 -40 89 -155 191 -164 281 -24 21 33 44 76
51 96 l11 35 29 -50 c54 -95 146 -155 214 -138 51 13 134 106 168 189 20 46
10 47 -27 5z"/>
<path d="M2106 1921 c-5 -8 -19 -11 -36 -8 -24 5 -27 3 -23 -17 3 -13 0 -27
-6 -30 -17 -11 -13 -29 4 -22 20 7 19 0 -6 -40 -28 -46 -16 -43 15 3 22 32 26
34 32 18 7 -17 8 -16 16 4 4 13 17 25 28 28 17 5 18 7 6 17 -8 6 -16 22 -18
36 -2 18 -5 21 -12 11z"/>
<path d="M616 1848 c33 -57 97 -142 138 -187 87 -91 167 -115 220 -66 36 33
75 121 83 186 l6 52 -22 -22 c-12 -12 -20 -29 -17 -37 11 -28 -12 -64 -41 -65
l-28 -1 28 -10 c38 -14 34 -25 -15 -36 -29 -7 -35 -10 -18 -11 24 -1 24 -1 -8
-31 -37 -34 -54 -39 -45 -12 3 9 3 14 -2 10 -11 -10 -67 21 -60 32 4 6 -3 10
-15 10 -29 0 -62 19 -55 31 4 5 25 10 48 11 l42 1 -51 6 c-48 6 -54 10 -113
79 -34 39 -66 72 -72 72 -6 0 -7 -6 -3 -12z"/>
<path d="M595 1804 c4 -27 11 -57 16 -66 6 -12 5 -19 -6 -26 -13 -7 -12 -10
10 -20 52 -24 -10 -45 -67 -23 -17 6 -29 4 -45 -8 -31 -26 -26 -69 13 -115 36
-42 46 -68 17 -45 -9 8 -14 9 -10 2 5 -7 -7 -14 -34 -18 -29 -5 -38 -10 -28
-16 21 -13 123 -11 142 4 15 11 10 19 -47 82 l-63 70 24 18 c13 11 25 18 27
16 1 -2 22 -39 46 -82 52 -92 63 -89 68 19 4 63 -1 91 -23 160 -32 98 -51 121
-40 48z"/>
<path d="M1836 1808 c-55 -92 -141 -147 -208 -134 -45 9 -107 54 -143 103 -16
23 -33 42 -36 42 -3 1 -11 -11 -18 -26 -25 -56 -86 -124 -129 -144 -71 -35
-131 -12 -193 73 l-28 39 -11 -43 c-28 -101 -82 -166 -148 -175 -67 -9 -151
46 -229 152 l-23 30 8 -35 c13 -63 7 -155 -11 -184 -16 -24 -16 -28 -1 -51 19
-30 31 -26 15 4 -10 17 -9 20 4 15 13 -5 15 -2 10 17 -3 13 1 44 9 69 8 25 14
37 15 26 1 -12 6 -16 17 -12 8 3 32 -5 52 -19 20 -14 45 -25 55 -25 11 0 15
-5 11 -11 -3 -6 0 -15 7 -21 10 -6 8 -8 -8 -6 -14 2 -32 -8 -52 -31 -17 -19
-31 -38 -31 -43 0 -4 -6 -8 -14 -8 -10 0 -12 -7 -8 -22 4 -17 2 -20 -11 -15
-18 7 -30 -16 -16 -30 7 -7 6 -26 -2 -57 -7 -30 -9 -79 -5 -139 4 -50 7 -108
8 -127 0 -19 3 -29 5 -22 8 20 26 13 20 -8 -3 -11 0 -20 6 -20 7 0 13 -11 13
-25 2 -27 -10 -34 -19 -11 -3 8 -22 16 -44 18 -27 2 -39 8 -41 21 -2 11 3 17
14 17 14 0 15 3 6 12 -7 7 -12 26 -12 44 0 22 -10 43 -35 70 -38 42 -42 67 -9
72 28 4 53 108 33 143 -7 13 -12 30 -10 38 1 7 -2 10 -8 6 -14 -8 -14 30 0 57
13 25 4 36 -19 21 -10 -6 -32 -14 -49 -17 l-32 -7 38 -39 c52 -53 75 -108 62
-143 -13 -33 -61 -63 -114 -73 l-40 -6 48 -23 c124 -60 152 -150 64 -204 l-31
-19 74 -7 c112 -10 185 -33 213 -67 36 -43 31 -73 -23 -130 l-26 -28 46 0 c26
0 59 -5 75 -11 61 -23 116 -99 129 -179 l7 -41 26 51 c53 102 120 160 188 160
49 0 100 -44 159 -139 2 -1 18 9 36 23 126 96 247 67 350 -84 l17 -25 0 43 c1
82 47 153 126 195 31 17 58 22 121 22 l81 0 -29 39 c-29 40 -36 83 -18 116 16
30 101 50 212 50 l99 0 -48 48 c-80 78 -91 137 -36 188 14 13 47 30 72 38 43
12 44 14 23 25 -72 39 -67 174 11 267 l26 30 -57 -14 c-51 -13 -61 -13 -94 1
-50 21 -86 79 -100 161 l-11 66 -44 -41 c-76 -70 -150 -94 -203 -64 -22 12
-27 11 -42 -1 -20 -19 -36 0 -18 21 9 10 6 23 -10 54 -11 23 -26 66 -33 96
l-13 55 -18 -32z m-336 -90 c0 -4 -20 -8 -45 -8 -49 0 -54 5 -27 30 16 16 19
16 45 2 15 -9 27 -20 27 -24z m351 13 c-11 -7 -10 -10 5 -14 10 -2 0 -4 -23
-4 -24 -1 -43 4 -43 9 0 5 4 7 8 4 4 -2 14 -1 22 5 8 5 22 9 30 9 13 0 13 -2
1 -9z m-282 -51 c14 -8 14 -9 1 -14 -8 -2 -22 -7 -30 -9 -8 -3 41 -5 110 -5
69 0 118 2 110 5 -8 2 -22 7 -30 9 -13 5 -13 6 0 14 27 14 107 21 135 10 33
-13 24 -30 -18 -31 l-32 -1 38 -10 c26 -7 37 -15 37 -29 0 -11 9 -20 23 -23
60 -12 127 -15 150 -7 19 7 28 6 36 -3 7 -8 28 -12 51 -11 22 1 43 -2 46 -6 3
-5 -16 -9 -43 -9 -45 -1 -94 -22 -76 -33 12 -8 17 -426 5 -440 -6 -7 -11 -37
-13 -67 -3 -75 -1 -92 11 -85 6 3 10 1 10 -4 0 -6 12 -11 28 -12 26 0 26 -1 5
-9 -13 -5 -23 -18 -23 -29 0 -11 -4 -22 -8 -25 -5 -3 -8 -29 -7 -60 0 -30 -2
-54 -5 -53 -16 3 -98 -18 -115 -29 -11 -8 -26 -14 -34 -14 -9 0 -25 -12 -36
-26 -15 -19 -34 -28 -75 -34 l-55 -8 48 -1 c49 -1 60 -13 28 -31 -29 -15 -87
-12 -129 7 l-37 17 45 6 45 7 -50 3 c-27 2 -113 3 -190 4 l-140 1 -46 33 c-47
34 -47 34 -104 22 -41 -8 -54 -15 -44 -21 11 -7 11 -9 1 -9 -7 0 -20 -7 -28
-15 -26 -26 -161 -17 -150 10 3 8 -4 11 -22 8 -21 -4 -24 -2 -12 6 13 9 12 11
-6 11 -11 0 -25 5 -31 11 -6 6 -22 17 -35 23 -20 10 -23 18 -20 56 5 75 9 81
51 78 33 -1 37 -5 33 -21 -3 -13 -1 -18 6 -13 6 4 21 -4 33 -18 l22 -25 41 21
c32 16 38 17 27 4 -7 -9 -9 -16 -4 -16 5 0 19 18 30 41 17 33 19 46 10 69 -6
16 -14 27 -18 24 -4 -2 -2 7 4 21 13 27 22 31 32 15 4 -6 11 -8 16 -5 5 4 9
-1 9 -9 0 -9 4 -16 9 -16 5 0 13 -9 16 -20 3 -11 13 -20 21 -20 8 0 17 -7 20
-15 3 -8 26 -17 50 -21 54 -8 117 3 108 18 -5 7 0 9 14 6 12 -3 21 -3 20 1 -2
18 4 22 17 11 12 -10 15 -9 15 8 0 11 8 26 17 33 11 9 14 10 9 2 -4 -7 -2 -21
3 -30 10 -17 11 -17 12 2 1 11 3 37 5 59 6 71 14 50 14 -37 l0 -87 64 0 c80 0
96 6 96 36 0 13 5 24 10 24 6 0 10 -7 10 -15 0 -8 4 -15 10 -15 5 0 7 7 4 15
-5 13 15 15 149 15 111 0 157 3 165 13 5 6 11 39 12 72 4 102 9 95 -75 95 -60
0 -73 3 -69 14 3 8 0 17 -5 21 -6 3 -9 11 -5 16 3 5 10 6 16 3 6 -4 8 1 3 16
-4 14 -3 20 2 17 10 -6 14 0 47 77 14 32 20 37 28 25 7 -10 8 -7 4 13 -6 28 8
48 18 26 3 -7 4 -1 1 14 -5 25 9 50 17 28 1 -5 2 29 0 77 -2 49 -5 94 -8 101
-3 11 -36 13 -152 11 -81 -1 -153 0 -159 4 -11 7 -57 -46 -48 -54 2 -3 -23 -6
-56 -7 -46 -3 -59 0 -59 11 0 31 -110 37 -141 8 -18 -16 -20 -28 -15 -105 3
-62 1 -86 -7 -86 -8 0 -7 -3 2 -9 11 -7 13 -30 8 -116 -7 -113 -17 -150 -28
-100 -6 29 -7 29 -8 -8 -1 -24 -5 -36 -11 -32 -6 4 -17 2 -24 -4 -11 -9 -15
-3 -23 26 -13 52 -15 223 -2 223 6 0 7 6 1 16 -5 9 -7 36 -4 60 2 23 2 54 -2
68 -6 24 -10 26 -66 26 -50 0 -60 3 -61 18 -1 16 -2 16 -6 0 -2 -10 -11 -18
-19 -18 -8 0 -14 -4 -14 -8 0 -5 -7 -9 -15 -9 -8 0 -15 4 -15 9 0 13 -26 38
-40 38 -6 0 -9 4 -6 9 4 5 -7 12 -24 16 -35 8 -41 38 -10 57 11 7 20 18 20 25
0 7 7 13 16 13 8 0 12 5 8 11 -18 30 58 39 96 12 33 -24 137 -23 170 0 18 12
49 18 110 19 l85 2 -78 3 c-55 3 -77 7 -74 16 2 6 14 14 28 18 30 8 148 1 168
-11z m639 -77 c3 -9 -12 -13 -52 -13 -52 0 -73 11 -43 24 22 9 90 1 95 -11z
m18 -276 l-9 -215 -51 -4 c-28 -2 -52 -4 -52 -4 -1 1 -4 99 -7 218 l-5 217 61
3 c34 2 64 2 67 1 3 0 1 -98 -4 -216z m-211 128 l7 -64 -73 -133 c-40 -73 -83
-150 -96 -170 l-23 -38 92 6 c51 3 99 8 107 10 10 3 12 -3 7 -27 -3 -17 -6
-51 -6 -75 l0 -43 -165 -3 -165 -3 0 68 c0 66 3 73 83 225 45 86 84 160 86
165 2 5 -37 6 -88 2 l-91 -8 0 71 0 71 58 4 c31 2 103 4 158 5 l102 2 7 -65z
m-965 15 c38 -27 77 -87 89 -138 8 -32 9 -27 10 41 l1 77 63 0 62 0 0 -193 c0
-168 2 -196 18 -220 21 -33 47 -34 82 -4 36 31 48 123 40 310 l-6 147 45 0
c24 0 52 3 61 7 16 6 17 -10 12 -218 -5 -261 -15 -310 -73 -358 -20 -16 -56
-34 -79 -40 -117 -30 -191 47 -214 220 l-7 54 -6 -58 c-4 -32 -18 -81 -33
-108 l-26 -50 22 -39 c13 -22 21 -41 18 -43 -22 -16 -90 -57 -93 -57 -2 0 -12
20 -22 45 -16 44 -18 45 -62 45 -92 0 -176 66 -208 163 -12 36 -15 75 -12 151
3 86 8 110 31 159 58 118 198 171 287 107z m1265 0 c33 0 55 -10 55 -25 0 -7
5 -15 11 -17 8 -3 7 -9 -3 -19 -8 -8 -13 -19 -11 -25 2 -7 -3 -19 -12 -28 -15
-15 -15 -16 1 -16 16 0 16 -1 -2 -15 -10 -8 -14 -15 -8 -15 7 0 17 -21 23 -47
l12 -47 -43 -38 -43 -37 1 -69 c1 -47 7 -77 19 -95 14 -23 15 -26 2 -21 -8 3
-18 1 -22 -5 -4 -8 -12 -8 -24 -1 -21 11 -27 80 -9 113 7 14 7 17 -1 13 -19
-12 -31 33 -29 116 l1 83 7 -60 7 -60 2 80 c2 44 4 98 5 120 0 22 5 46 9 53 5
7 3 12 -5 12 -9 0 -9 3 2 10 10 6 11 10 3 10 -18 0 -16 16 4 36 11 11 18 13
21 5 2 -6 14 -11 27 -11z m-640 -309 l0 -299 -65 -4 c-36 -2 -65 -3 -65 -3 0
0 1 136 3 303 l3 302 62 0 62 0 0 -299z m129 160 c-2 -54 -3 -57 -15 -41 -9
12 -10 11 -6 -6 2 -12 -2 -32 -10 -45 l-14 -24 6 25 c4 18 3 21 -3 10 -5 -8
-12 -32 -16 -52 -4 -21 -11 -40 -17 -44 -7 -4 -10 31 -8 105 l2 111 41 -2 c40
-1 41 -2 40 -37z m-96 -111 c-3 -72 -8 -133 -11 -137 -4 -3 -7 55 -7 130 0 93
4 137 11 137 8 0 10 -40 7 -130z m522 -200 l0 -70 -65 0 c-57 0 -65 2 -65 19
0 10 -3 39 -6 64 -6 44 -6 46 22 50 16 2 48 5 72 6 l42 1 0 -70z m-1096 -389
c3 -5 -8 -14 -25 -21 -32 -13 -79 -2 -79 20 0 12 97 14 104 1z m401 -4 c-43
-29 -125 -30 -125 -1 0 11 17 14 72 14 64 0 70 -2 53 -13z"/>
<path d="M1935 1569 c-27 -3 -43 -7 -35 -9 23 -4 120 -7 120 -4 0 12 -43 19
-85 13z"/>
<path d="M2050 1447 c0 -37 4 -67 8 -67 9 0 6 119 -3 128 -3 3 -5 -25 -5 -61z"/>
<path d="M2130 1432 c0 -49 3 -137 7 -195 6 -102 7 -107 28 -107 22 0 23 5 29
118 3 64 9 152 12 195 l6 77 -41 0 -41 0 0 -88z m27 -154 c-2 -18 -4 -6 -4 27
0 33 2 48 4 33 2 -15 2 -42 0 -60z"/>
<path d="M1840 1490 c-63 -4 -118 -8 -122 -9 -5 0 -8 -20 -8 -44 l0 -42 101 6
c55 4 103 10 106 13 4 3 -31 6 -77 6 -96 0 -100 17 -5 23 l60 3 -67 2 c-90 3
-88 22 1 22 38 0 76 3 85 6 11 4 16 1 16 -10 0 -22 27 -20 33 2 3 9 5 -7 6
-37 1 -44 -2 -52 -14 -47 -10 3 -18 -1 -22 -11 -4 -9 -2 -18 5 -21 6 -2 8 -10
5 -18 -4 -11 -9 -8 -19 11 -7 14 -11 32 -7 40 3 8 3 15 0 15 -3 0 -49 -83
-101 -184 -81 -155 -96 -191 -96 -230 l0 -46 53 0 c30 0 95 3 145 6 l92 7 0
44 0 44 -62 -6 c-35 -3 -85 -8 -112 -11 l-48 -5 24 43 c14 24 59 106 102 184
69 128 76 146 76 197 0 48 -3 57 -17 55 -10 -1 -70 -5 -133 -8z m-92 -50 c0
-16 -4 -30 -9 -30 -5 0 -9 14 -9 30 0 17 4 30 8 30 5 0 9 -13 10 -30z m182
-146 c0 -2 -4 -4 -10 -4 -5 0 -10 7 -10 16 0 8 -5 12 -11 8 -6 -3 -8 -17 -5
-31 5 -17 -4 -45 -30 -94 -20 -38 -38 -68 -40 -67 -1 2 14 37 34 77 25 50 33
76 25 78 -9 3 -8 13 4 38 l16 34 14 -26 c7 -14 13 -27 13 -29z m-79 -61 c-10
-21 -28 -60 -40 -86 -13 -27 -24 -47 -27 -44 -7 7 71 167 81 167 3 0 -3 -17
-14 -37z m105 -248 l3 -25 -100 0 c-54 0 -99 4 -99 9 0 5 38 9 85 9 47 -1 85
3 85 7 0 4 -38 7 -85 6 -65 -2 -85 1 -85 11 0 10 22 13 97 11 95 -2 96 -3 99
-28z"/>
<path d="M890 1454 c-74 -32 -112 -90 -131 -199 -13 -78 -6 -161 20 -219 34
-78 126 -135 197 -122 32 7 35 5 50 -34 9 -22 18 -40 21 -40 4 0 45 20 51 25
2 1 -7 21 -19 44 -20 39 -20 43 -5 60 34 38 56 122 56 217 0 122 -20 187 -75
241 -37 38 -48 43 -86 43 -24 -1 -60 -8 -79 -16z m96 -7 c4 -4 -11 -7 -34 -7
-22 0 -44 -4 -47 -10 -8 -12 -25 -13 -25 -1 0 5 17 13 38 18 41 11 58 10 68 0z
m49 -17 c3 -5 -1 -10 -9 -10 -9 0 -16 -5 -16 -11 0 -5 5 -7 10 -4 6 3 13 -1
16 -10 5 -12 9 -13 20 -4 10 8 14 8 14 0 0 -6 -5 -11 -11 -11 -5 0 -7 -5 -3
-12 4 -7 -6 -2 -23 10 -41 29 -108 29 -162 0 -22 -12 -38 -24 -36 -28 2 -4 -2
-7 -9 -7 -11 0 -12 4 -3 19 7 10 17 18 24 18 7 0 13 4 13 8 0 10 89 36 118 34
12 -1 22 3 22 8 0 13 27 13 35 0z m-26 -66 c60 -50 81 -206 40 -291 -11 -24
-24 -43 -29 -43 -4 0 -15 20 -24 45 -18 45 -29 52 -56 35 -12 -8 -11 -16 8
-56 26 -52 18 -69 -27 -58 -94 22 -136 140 -96 270 34 109 118 154 184 98z
m79 -37 c14 6 15 4 5 -8 -8 -10 -9 -27 -3 -56 12 -53 13 -117 2 -168 -7 -29
-11 -36 -16 -23 -4 9 -3 25 3 37 20 37 6 186 -20 216 -5 5 -9 14 -9 20 0 5 5
2 11 -7 6 -11 16 -15 27 -11z m-303 -141 c0 -58 -3 -97 -7 -88 -11 28 -6 192
6 192 1 0 1 -47 1 -104z m292 -148 c2 6 9 12 14 12 5 0 4 -9 -3 -19 -6 -10
-17 -17 -23 -14 -18 6 -26 -24 -20 -66 6 -32 5 -34 -8 -19 -9 12 -17 14 -24 7
-7 -7 -15 -5 -26 5 -9 9 -25 16 -37 16 -28 0 -86 25 -96 41 -5 9 2 7 19 -4 40
-26 98 -20 114 13 9 18 13 20 13 8 0 -26 17 -22 36 8 13 19 19 22 26 12 8 -10
11 -10 15 0z"/>
<path d="M919 1352 c-97 -49 -113 -260 -23 -318 34 -23 39 -13 16 35 l-20 40
45 27 c24 14 45 24 47 22 1 -1 10 -21 20 -43 16 -36 19 -38 29 -20 21 36 13
157 -14 211 -29 57 -54 69 -100 46z m55 -39 c6 -15 8 -15 16 -3 8 13 10 12 14
0 2 -8 9 -30 15 -49 14 -43 14 -108 1 -116 -6 -4 -10 19 -10 61 0 37 -3 64 -7
60 -4 -4 -6 -25 -4 -46 2 -32 -1 -41 -16 -46 -10 -3 -26 -10 -35 -15 -23 -12
-31 -11 -23 1 3 6 2 10 -3 10 -5 0 -12 -9 -15 -20 -9 -36 -27 -21 -28 23 l-1
42 -8 -34 c-5 -19 -6 -40 -3 -48 3 -7 0 -13 -6 -13 -8 0 -11 18 -9 53 2 35 7
51 16 50 6 -2 12 2 12 7 0 6 -4 10 -9 10 -4 0 -6 12 -3 26 3 15 10 23 18 20 7
-3 18 2 24 10 10 11 9 14 -6 15 -14 1 -13 3 6 9 41 13 57 11 64 -7z"/>
<path d="M1434 1453 c13 -48 17 -236 6 -310 -15 -101 -37 -140 -84 -148 -91
-18 -106 17 -106 250 l0 175 -40 0 -40 0 0 -62 c1 -101 17 -291 30 -339 7 -27
27 -58 51 -82 37 -38 42 -39 90 -35 83 8 132 57 149 148 6 30 13 137 17 238
l6 182 -42 0 c-36 0 -42 -3 -37 -17z m47 -360 c-7 -36 -9 1 -9 152 1 110 4
205 7 210 10 17 12 -312 2 -362z m-249 141 c-2 -91 -7 -176 -12 -187 -6 -14
-7 28 -5 108 2 72 4 156 4 188 1 31 4 57 9 57 4 0 6 -75 4 -166z m228 -224 c0
-5 -5 -10 -11 -10 -6 0 -8 -10 -5 -22 3 -13 3 -18 0 -11 -8 18 -34 4 -27 -15
5 -12 2 -14 -13 -7 -28 12 -117 15 -130 4 -8 -6 -10 -2 -7 15 5 22 8 24 30 15
27 -10 103 -1 103 12 0 5 9 9 20 9 11 0 20 5 20 10 0 6 5 10 10 10 6 0 10 -4
10 -10z m-75 -80 c-3 -5 -28 -10 -56 -10 -27 0 -49 5 -49 10 0 6 25 10 56 10
34 0 53 -4 49 -10z"/>
<path d="M1570 1160 l0 -280 40 0 40 0 0 280 0 280 -40 0 -40 0 0 -280z m60
34 c0 -135 -4 -223 -9 -219 -5 3 -9 101 -9 225 0 128 3 220 9 220 5 0 9 -94 9
-226z m-15 -238 c9 4 15 0 15 -9 0 -10 -8 -15 -20 -14 -19 1 -20 8 -18 232 l3
230 2 -222 c3 -191 5 -221 18 -217z"/>
<path d="M2120 1005 l0 -45 39 0 39 0 4 45 3 45 -42 0 -43 0 0 -45z"/>
<path d="M2250 1724 c0 -88 22 -156 63 -190 46 -38 114 -30 213 27 78 45 95
64 42 47 -18 -5 -43 -12 -55 -15 -13 -3 -23 -13 -24 -22 0 -11 -2 -12 -6 -3
-4 10 -8 10 -20 0 -19 -15 -39 -21 -81 -21 -39 -1 -98 53 -79 72 8 8 5 11 -8
12 -15 0 -13 4 10 14 l30 14 -33 1 c-44 0 -41 31 3 37 43 6 44 13 2 13 -34 0
-37 3 -37 28 0 15 -5 34 -10 42 -7 10 -10 -6 -10 -56z"/>
<path d="M2549 1541 c-149 -138 -175 -260 -69 -328 19 -13 41 -27 48 -33 27
-23 10 10 -28 53 -22 25 -40 52 -40 60 0 9 -4 18 -8 21 -13 8 3 99 17 104 7 2
16 9 21 16 5 6 22 27 38 46 82 101 104 130 100 130 -2 0 -38 -31 -79 -69z"/>
<path d="M440 1455 c0 -3 26 -34 58 -69 89 -98 91 -100 77 -119 -14 -19 -53
-35 -104 -43 -20 -3 -45 -11 -56 -18 -17 -10 -14 -11 27 -14 60 -4 120 12 154
41 22 19 25 28 19 55 -8 40 -80 120 -134 150 -22 13 -41 21 -41 17z"/>
<path d="M692 1280 c-8 -30 -12 -80 -10 -110 l4 -55 2 63 c1 35 7 72 13 83 5
11 9 32 7 47 -2 21 -6 15 -16 -28z"/>
<path d="M2447 1165 c-130 -33 -140 -104 -30 -206 47 -42 113 -87 113 -76 0 1
-8 18 -18 37 -12 25 -23 34 -37 32 -19 -3 -19 -2 -2 12 11 8 26 12 34 9 9 -4
16 2 20 16 6 23 19 28 26 9 3 -7 6 -3 6 10 1 12 6 22 11 22 16 0 12 30 -5 36
-9 4 -13 13 -10 24 6 20 -7 33 -50 48 -16 6 -22 11 -13 11 9 1 19 5 22 10 10
16 -18 19 -67 6z m106 -107 l22 -16 -28 -7 c-20 -5 -27 -13 -27 -31 0 -30 -16
-31 -25 -3 -6 16 -13 20 -36 17 -22 -3 -26 -2 -18 8 7 9 1 15 -26 24 -44 15
-41 36 4 32 24 -3 31 0 26 8 -6 9 1 10 22 6 22 -5 34 -2 44 10 13 16 14 15 17
-7 2 -13 13 -32 25 -41z"/>
<path d="M405 1150 c49 -32 58 -38 95 -54 93 -42 102 -80 31 -125 -44 -29 -91
-71 -79 -71 3 0 25 7 49 15 49 17 104 57 119 85 23 43 -34 99 -147 146 -74 30
-111 33 -68 4z"/>
<path d="M493 875 c21 -8 54 -16 73 -17 38 -2 41 -6 18 -23 -14 -9 -14 -16 -5
-33 8 -15 9 -28 3 -39 -11 -19 11 -49 28 -38 5 3 10 1 10 -4 0 -6 7 -11 15
-11 8 0 15 -5 15 -12 0 -6 9 -3 20 7 11 10 20 24 20 31 0 7 9 18 20 24 11 6
20 16 20 23 0 7 -9 18 -20 25 -20 12 -28 52 -11 52 5 0 7 -9 4 -20 -4 -14 0
-20 12 -20 11 0 15 5 11 15 -3 9 0 15 9 15 8 0 15 -7 15 -16 0 -14 3 -14 15
-4 9 7 16 11 18 9 27 -48 28 -50 12 -65 -8 -9 -15 -22 -15 -30 0 -8 -5 -12
-11 -9 -11 7 -59 -43 -59 -62 0 -6 -9 -15 -20 -18 -18 -6 -29 -25 -14 -25 13
0 99 65 131 99 97 102 31 151 -212 157 -132 4 -138 3 -102 -11z m207 -81 l25
-14 -23 -6 c-15 -4 -25 -17 -29 -36 -5 -28 -6 -28 -20 -8 -10 15 -21 18 -39
14 -25 -6 -32 4 -13 23 8 8 8 17 0 31 -15 28 -14 30 12 25 14 -3 29 2 37 13
14 15 15 15 20 -6 3 -12 16 -28 30 -36z"/>
<path d="M2207 876 c-89 -24 -98 -62 -32 -135 31 -34 46 -41 145 -66 101 -26
110 -30 104 -49 -11 -38 -22 -38 -88 -1 -36 20 -69 34 -74 31 -5 -3 -26 1 -48
9 -72 26 -70 15 8 -36 77 -49 78 -50 62 -74 l-15 -24 -72 76 -71 75 -61 -4
c-81 -5 -133 -33 -169 -92 -26 -41 -30 -60 -34 -138 -3 -58 -1 -93 7 -101 8
-8 11 -3 12 19 1 16 1 35 0 43 -2 7 2 10 9 6 9 -6 9 -2 1 13 -14 27 -15 54 -1
32 12 -19 13 -4 1 38 -8 27 -6 36 13 57 18 19 34 25 82 28 l59 3 -57 2 c-42 1
-58 6 -58 16 0 8 7 17 16 20 27 10 212 7 219 -4 10 -16 -14 -40 -33 -33 -14 4
-14 3 -3 -5 8 -6 20 -8 27 -5 8 3 27 -6 44 -20 42 -36 71 -43 86 -22 7 9 17
14 23 10 7 -3 8 0 5 9 -5 12 1 16 24 16 42 0 92 11 87 20 -8 12 27 51 41 46 8
-3 14 -1 14 4 0 4 -13 11 -30 15 -22 5 -30 13 -31 28 0 21 -1 21 -8 2 -8 -19
-8 -19 -16 4 -5 18 -9 20 -16 10 -6 -11 -11 -11 -21 -1 -16 16 -31 16 -22 0 4
-7 -4 -3 -18 10 -13 12 -28 22 -33 22 -5 0 -1 -6 8 -12 16 -12 15 -13 -7 -14
-19 -1 -22 2 -18 18 2 10 1 18 -4 17 -5 -1 -22 -1 -39 0 -21 1 -26 4 -16 10
11 7 9 10 -8 16 -16 5 -21 14 -21 39 0 53 13 57 174 57 143 -1 191 10 100 23
-74 10 -195 6 -247 -8z"/>
<path d="M765 653 l-50 -16 40 -8 c22 -4 43 -5 48 -2 4 2 7 -1 7 -7 0 -16 -46
-30 -108 -31 -31 -1 -47 -4 -34 -6 30 -6 48 -39 31 -59 -9 -11 -9 -18 -2 -22
5 -4 12 -14 15 -22 4 -11 9 -8 18 12 11 23 10 31 -4 54 l-18 26 32 -7 c25 -6
37 -2 56 16 21 20 24 20 24 5 0 -15 7 -12 39 13 69 54 84 37 21 -24 -33 -32
-37 -41 -25 -48 17 -9 49 15 37 28 -4 4 0 6 8 4 8 -2 25 2 38 9 20 12 23 10
31 -12 6 -13 15 -26 22 -28 6 -2 13 -26 14 -53 2 -28 6 -57 8 -65 3 -8 10 -28
15 -45 9 -26 11 -20 11 41 2 134 -49 229 -134 253 -52 14 -79 13 -140 -6z"/>
<path d="M1190 604 c-46 -42 -103 -138 -125 -210 -8 -26 -13 -50 -11 -52 2 -2
7 5 10 16 4 11 17 32 30 47 14 16 27 43 30 60 7 33 20 51 70 95 27 24 28 24
22 3 -10 -32 11 -37 22 -6 6 16 10 21 10 13 0 -26 -26 -88 -28 -65 -1 19 -1
19 -11 2 -6 -10 -8 -33 -5 -50 3 -18 1 -39 -4 -47 -8 -12 -10 -10 -10 9 0 30
-12 20 -15 -13 -2 -17 1 -23 10 -20 10 4 12 -1 8 -17 -7 -27 19 -49 58 -49 48
0 59 22 60 123 1 51 4 103 8 116 l7 24 17 -26 c26 -40 77 -90 85 -82 11 11
-40 94 -82 132 l-41 38 -7 -95 c-5 -52 -10 -122 -14 -155 l-5 -60 -40 3 c-21
2 -39 6 -39 7 0 2 20 65 45 141 25 75 45 140 45 145 0 5 -13 9 -30 9 -20 0
-43 -12 -70 -36z"/>
<path d="M1585 580 c-43 -10 -86 -34 -118 -66 -39 -39 -26 -41 27 -5 110 76
225 44 278 -76 10 -23 25 -46 32 -50 7 -4 19 -19 26 -33 8 -14 15 -20 17 -13
8 22 -44 120 -88 168 -62 67 -114 90 -174 75z"/>
<path d="M776 524 c-20 -19 -20 -21 2 -26 25 -7 43 14 26 30 -10 9 -16 8 -28
-4z"/>
<path d="M838 499 c-11 -6 -18 -22 -18 -41 l0 -31 -23 21 c-25 23 -53 28 -77
12 -11 -7 -7 -10 18 -10 20 0 31 -4 27 -10 -3 -5 0 -10 9 -10 8 0 21 -3 30 -6
11 -4 19 3 28 23 6 15 21 36 32 45 16 13 17 18 6 17 -8 0 -23 -4 -32 -10z"/>
<path d="M1244 405 c-9 -28 -8 -35 2 -35 9 0 14 12 14 35 0 19 -1 35 -3 35 -1
0 -7 -16 -13 -35z"/>
</g>
</svg>
